<svg version="1.1" xmlns="http://www.w3.org/2000/svg" xmlns:xlink="http://www.w3.org/1999/xlink" x="0px" y="0px" viewBox="0 0 48 48" xml:space="preserve" width="48" height="48"><defs xmlns="http://www.w3.org/2000/svg"><linearGradient gradientUnits="userSpaceOnUse" id="grad525184" x1="0%" y1="0%" x2="0%" y2="100%"><stop offset="0%" stop-color="rgb(245, 99, 75)"></stop><stop offset="100%" stop-color="rgb(254, 148, 24)"></stop></linearGradient></defs><g class="nc-icon-wrapper" fill="#444444" transform="translate(0.5, 0.5)"><line data-cap="butt" data-color="color-2" fill="none" stroke="url(#grad525184)" stroke-width="3" stroke-miterlimit="10" x1="9" y1="12" x2="12" y2="24" stroke-linejoin="miter" stroke-linecap="butt"></line> <path data-cap="butt" data-color="color-2" fill="none" stroke="url(#grad525184)" stroke-width="3" stroke-miterlimit="10" d="M35.4189377,30.4526596 l8.386837-20.9670982C44.8567581,6.8581052,42.9217262,4,40.0918694,4H32" stroke-linejoin="miter" stroke-linecap="butt"></path> <circle data-color="color-2" fill="none" stroke="url(#grad525184)" stroke-width="3" stroke-linecap="square" stroke-miterlimit="10" cx="12" cy="34" r="3" stroke-linejoin="miter"></circle> <line data-color="color-2" fill="none" stroke="url(#grad525184)" stroke-width="3" stroke-linecap="square" stroke-miterlimit="10" x1="4" y1="12" x2="14" y2="12" stroke-linejoin="miter"></line> <path fill="none" stroke="url(#grad525184)" stroke-width="3" stroke-linecap="square" stroke-miterlimit="10" d="M41.9309082,32.3459473 l-26.5671387-7.7241211C14.8775635,24.4471436,13.458333,24,12,24C6.4771729,24,2,28.4771729,2,34s4.4771729,10,10,10h28 c3.3137207,0,6-2.6862793,6-6C46,35.3659668,44.2915039,33.1529541,41.9309082,32.3459473z" stroke-linejoin="miter"></path></g></svg>