<svg version="1.1" xmlns="http://www.w3.org/2000/svg" xmlns:xlink="http://www.w3.org/1999/xlink" x="0px" y="0px" viewBox="0 0 48 48" xml:space="preserve" width="48" height="48"><defs xmlns="http://www.w3.org/2000/svg"><linearGradient gradientUnits="userSpaceOnUse" id="grad531403" x1="0%" y1="0%" x2="0%" y2="100%"><stop offset="0%" stop-color="rgb(245, 99, 75)"></stop><stop offset="100%" stop-color="rgb(254, 148, 24)"></stop></linearGradient></defs><g class="nc-icon-wrapper" transform="translate(0.5, 0.5)" fill="#444444"><path data-color="color-2" fill="none" stroke="url(#grad531403)" stroke-width="3" stroke-linecap="square" stroke-miterlimit="10" d="M8,22 V9.9999924C8,5.5817184,11.5817184,2,15.9999924,2h0.0000153C20.4182816,2,24,5.5817184,24,9.9999924v28.0000153 C24,42.4182816,27.5817184,46,31.9999924,46h0.0000153C36.4182816,46,40,42.4182816,40,38.0000076V26" stroke-linejoin="miter"></path> <polygon fill="none" stroke="url(#grad531403)" stroke-width="3" stroke-linecap="square" stroke-miterlimit="10" points="12,40 12,38 11,36 11,26.0001297 12,24 12,22 4,22 4,24 5,26.0001297 5,36 4,38 4,40 " stroke-linejoin="miter"></polygon> <polygon fill="none" stroke="url(#grad531403)" stroke-width="3" stroke-linecap="square" stroke-miterlimit="10" points="44,26 44,24 43,22 43,12.0001297 44,10 44,8 36,8 36,10 37,12.0001297 37,22 36,24 36,26 " stroke-linejoin="miter"></polygon></g></svg>