<svg version="1.1" xmlns="http://www.w3.org/2000/svg" xmlns:xlink="http://www.w3.org/1999/xlink" x="0px" y="0px" viewBox="0 0 48 48" xml:space="preserve" width="48" height="48"><defs xmlns="http://www.w3.org/2000/svg"><linearGradient gradientUnits="userSpaceOnUse" id="grad560707" x1="0%" y1="0%" x2="0%" y2="100%"><stop offset="0%" stop-color="rgb(245, 99, 75)"></stop><stop offset="100%" stop-color="rgb(254, 148, 24)"></stop></linearGradient></defs><g class="nc-icon-wrapper" transform="translate(0.5, 0.5)" fill="#444444"><line fill="none" stroke="url(#grad560707)" stroke-width="3" stroke-linecap="square" stroke-miterlimit="10" x1="24" y1="2" x2="24" y2="8" stroke-linejoin="miter"></line> <path fill="none" stroke="url(#grad560707)" stroke-width="3" stroke-linecap="square" stroke-miterlimit="10" d="M10,24v-2 c0-7.7,6.3-14,14-14l0,0c7.7,0,14,6.3,14,14v2" stroke-linejoin="miter"></path> <path data-color="color-2" fill="none" stroke="url(#grad560707)" stroke-width="3" stroke-linecap="square" stroke-miterlimit="10" d="M39,30H9 c-1.7,0-3-1.3-3-3l0,0c0-1.7,1.3-3,3-3h30c1.7,0,3,1.3,3,3l0,0C42,28.7,40.7,30,39,30z" stroke-linejoin="miter"></path> <line data-color="color-2" fill="none" stroke="url(#grad560707)" stroke-width="3" stroke-linecap="square" stroke-miterlimit="10" x1="24" y1="43" x2="24" y2="46" stroke-linejoin="miter"></line> <line data-color="color-2" fill="none" stroke="url(#grad560707)" stroke-width="3" stroke-linecap="square" stroke-miterlimit="10" x1="16" y1="37" x2="16" y2="40" stroke-linejoin="miter"></line> <line data-color="color-2" fill="none" stroke="url(#grad560707)" stroke-width="3" stroke-linecap="square" stroke-miterlimit="10" x1="32" y1="37" x2="32" y2="40" stroke-linejoin="miter"></line></g></svg>