<svg version="1.1" xmlns="http://www.w3.org/2000/svg" xmlns:xlink="http://www.w3.org/1999/xlink" x="0px" y="0px" viewBox="0 0 48 48" xml:space="preserve" width="48" height="48"><defs xmlns="http://www.w3.org/2000/svg"><linearGradient gradientUnits="userSpaceOnUse" id="grad537383" x1="0%" y1="0%" x2="0%" y2="100%"><stop offset="0%" stop-color="rgb(245, 99, 75)"></stop><stop offset="100%" stop-color="rgb(254, 148, 24)"></stop></linearGradient></defs><g class="nc-icon-wrapper" fill="#444444" transform="translate(0.5, 0.5)"><path fill-rule="evenodd" clip-rule="evenodd" fill="none" stroke="url(#grad537383)" stroke-width="3" stroke-linecap="square" stroke-miterlimit="10" d=" M39.897,36.632l-9.53-3.177C29.551,33.184,29,32.419,29,31.558v-1.118c0-1.367,1.332-2.273,2.641-1.875 C32.76,28.906,34.167,29.083,36,29c-3-3.25-0.247-6.75,0-13c0.25-6.333-2-12.833-8-12c-2.875-2.792-12.75-4.312-16,8 c-1.547,5.863,1.75,9-2,16c1.802,1.068,4.227,1.249,6.452,0.508C17.711,28.088,19,29.09,19,30.417v1.142 c0,0.861-0.551,1.625-1.368,1.897l-9.53,3.177C5.653,37.449,4,39.742,4,42.325V46h40v-3.675C44,39.742,42.347,37.449,39.897,36.632z " stroke-linejoin="miter"></path></g></svg>